<svg width="110" height="110" viewBox="0 0 110 110" fill="none" xmlns="http://www.w3.org/2000/svg">
<path d="M33.637 46.2229L54.9998 24.86L76.3727 46.2321L88.8026 33.8021L54.9998 0L21.2079 33.792L33.6374 46.222L33.637 46.2229ZM0 55L12.4304 42.5678L24.8599 54.9974L12.4295 67.4278L0 55ZM33.637 63.7784L54.9998 85.14L76.3723 63.7683L88.8088 76.1917L88.8026 76.1983L54.9998 110L21.2079 76.208L21.1903 76.1904L33.6383 63.7771L33.637 63.7784ZM85.1397 55.0053L97.5701 42.5748L110 55.0044L97.5696 67.4348L85.1397 55.0053Z" fill="#F3BA2F"/>
<path d="M67.6068 54.9937H67.6121L55 42.3804L45.6777 51.7002L44.6068 52.7716L42.398 54.9809L42.3804 54.9981L42.398 55.0161L55 67.6202L67.6129 55.0069L67.6191 54.9998L67.6077 54.9937" fill="#F3BA2F"/>
</svg>
