<svg width="16" height="12" viewBox="0 0 16 12" fill="none" xmlns="http://www.w3.org/2000/svg">
<path d="M12.9 4.69366C12.4467 2.39366 10.4267 0.666992 8 0.666992C6.07333 0.666992 4.4 1.76033 3.56667 3.36033C1.56 3.57366 0 5.27366 0 7.33366C0 9.54033 1.79333 11.3337 4 11.3337H12.6667C14.5067 11.3337 16 9.84033 16 8.00033C16 6.24032 14.6333 4.81366 12.9 4.69366ZM12.6667 10.0003H4C2.52667 10.0003 1.33333 8.80699 1.33333 7.33366C1.33333 5.96699 2.35333 4.82699 3.70667 4.68699L4.42 4.61366L4.75333 3.98033C5.38667 2.76033 6.62667 2.00033 8 2.00033C9.74667 2.00033 11.2533 3.24033 11.5933 4.95366L11.7933 5.95366L12.8133 6.02699C13.8533 6.09366 14.6667 6.96699 14.6667 8.00033C14.6667 9.10032 13.7667 10.0003 12.6667 10.0003ZM8.96667 4.66699H7.03333V6.66699H5.33333L8 9.33366L10.6667 6.66699H8.96667V4.66699Z" fill="#227BFF"/>
</svg>
